<svg id="_317727_facebook_social_media_social_icon" data-name="317727_facebook_social media_social_icon" xmlns="http://www.w3.org/2000/svg" width="31.216" height="31.216" viewBox="0 0 31.216 31.216">
  <path id="Path_21374" data-name="Path 21374" d="M31.216,29.265a1.952,1.952,0,0,1-1.951,1.951H1.951A1.952,1.952,0,0,1,0,29.265V1.951A1.952,1.952,0,0,1,1.951,0H29.265a1.952,1.952,0,0,1,1.951,1.951Z" fill="#3b5998"/>
  <path id="f" d="M21.78,31.339V19.633h3.9l.976-4.878H21.78V12.8a2.587,2.587,0,0,1,2.927-2.927h1.951V5h-3.9C19.17,5,16.9,7.81,16.9,11.829v2.927H13v4.878h3.9V31.339Z" transform="translate(-0.318 -0.479)" fill="#fff"/>
</svg>
