<svg xmlns="http://www.w3.org/2000/svg" width="20" height="20" viewBox="0 0 20 20">
  <g id="Group_776" data-name="Group 776" transform="translate(-7.386 -7)">
    <path id="filter" d="M16.167,24.5H12.833a1.667,1.667,0,0,1-1.667-1.667V16.508L4.992,10.333A1.667,1.667,0,0,1,4.5,9.159V6.167A1.667,1.667,0,0,1,6.167,4.5H22.833A1.667,1.667,0,0,1,24.5,6.167V9.159a1.667,1.667,0,0,1-.492,1.175l-6.175,6.175v6.325A1.667,1.667,0,0,1,16.167,24.5Zm-10-18.333V9.159l6.667,6.667v7.008h3.333V15.825l6.667-6.667V6.167Z" transform="translate(2.886 2.5)" fill="#2b7bb2"/>
  </g>
</svg>
