<svg xmlns="http://www.w3.org/2000/svg" xmlns:xlink="http://www.w3.org/1999/xlink" width="18" height="18" viewBox="0 0 18 18"><defs><clipPath id="a"><rect width="18" height="18" fill="none"/></clipPath></defs><g clip-path="url(#a)"><rect width="18" height="18" fill="none"/><path d="M2.254,5.635V15.777H15.777V5.635Zm12.4-3.381H16.9a1.065,1.065,0,0,1,1.127,1.127V16.9A1.065,1.065,0,0,1,16.9,18.031H1.127A1.065,1.065,0,0,1,0,16.9V3.381A1.065,1.065,0,0,1,1.127,2.254H3.381V1.127A1.065,1.065,0,0,1,4.508,0,1.065,1.065,0,0,1,5.635,1.127V2.254H12.4V1.127a1.127,1.127,0,1,1,2.254,0ZM13.523,13.523H11.269V11.269h2.254Zm-3.381,0H7.888V11.269h2.254Zm3.381-3.381H11.269V7.888h2.254Zm-3.381,0H7.888V7.888h2.254ZM6.762,13.523H4.508V11.269H6.762Z" fill="#fff" fill-rule="evenodd"/></g></svg>