<svg xmlns="http://www.w3.org/2000/svg" width="18.03" height="17.658" viewBox="0 0 18.03 17.658"><path d="M15.7,16.256h4.553c-.382-5.1-2.555-8.265-5.341-10.138l1.269-2.8a.591.591,0,0,0-.045-.553.578.578,0,0,0-.482-.266H7.712a.578.578,0,0,0-.482.266.591.591,0,0,0-.045.553l.7,1.522h5.862L13.22,6.012H12.149a14.7,14.7,0,0,1,.718,2.745,14.481,14.481,0,0,1,.185,1.756l-.915.65A13.33,13.33,0,0,0,11.952,8.9a12.828,12.828,0,0,0-.823-2.892H10.55A16.531,16.531,0,0,0,9.113,8.178,14.074,14.074,0,0,0,8.25,10.2l-.794-.533a13.406,13.406,0,0,1,.852-1.955,18.052,18.052,0,0,1,1.112-1.7H8.407l.046.1c-3.07,2.066-5.4,5.7-5.4,11.754a.972.972,0,0,0,.24.7.952.952,0,0,0,.663.322H8.586a1.575,1.575,0,0,1-.342-1.606,1.55,1.55,0,0,1,1.269-1.028,1.572,1.572,0,0,1,1.35-2.365h3.476a1.572,1.572,0,0,1,1.564,1.58A1.552,1.552,0,0,1,15.7,16.256Z" transform="translate(-3.047 -2.5)" fill="#fff"/><path d="M16.982,27.923a.423.423,0,0,0-.423-.423H14.023a.423.423,0,0,0,0,.845h2.536A.423.423,0,0,0,16.982,27.923Z" transform="translate(-7.065 -13.551)" fill="#fff"/><path d="M18.5,23.5H15.963a.423.423,0,1,0,0,.845H18.5a.423.423,0,1,0,0-.845Z" transform="translate(-7.803 -11.325)" fill="#fff"/><path d="M17.959,31.5H15.423a.423.423,0,1,0,0,.845h2.536a.423.423,0,1,0,0-.845Z" transform="translate(-7.598 -14.688)" fill="#fff"/><path d="M28.082,31.5H25.123a.423.423,0,0,0,0,.845h2.959a.423.423,0,0,0,0-.845Z" transform="translate(-10.897 -14.688)" fill="#fff"/><path d="M29.082,27.5H26.123a.423.423,0,0,0,0,.845h2.959a.423.423,0,0,0,0-.845Z" transform="translate(-11.475 -13.551)" fill="#fff"/></svg>