<svg xmlns="http://www.w3.org/2000/svg" xmlns:xlink="http://www.w3.org/1999/xlink" width="18" height="18" viewBox="0 0 18 18"><defs><clipPath id="a"><rect width="18" height="18" fill="none"/></clipPath></defs><g clip-path="url(#a)"><path d="M9.015,0a9.015,9.015,0,1,0,9.015,9.015A9.042,9.042,0,0,0,9.015,0Zm0,11.269a2.254,2.254,0,1,1,2.254-2.254A2.26,2.26,0,0,1,9.015,11.269Zm0-9.015a6.575,6.575,0,0,1,2.93.676L10.192,4.683a4.047,4.047,0,0,0-2.354,0L6.085,2.93A6.575,6.575,0,0,1,9.015,2.254ZM2.254,9.015a6.575,6.575,0,0,1,.676-2.93L4.683,7.839a4.047,4.047,0,0,0,0,2.354L2.93,11.945A6.575,6.575,0,0,1,2.254,9.015Zm6.762,6.762a6.575,6.575,0,0,1-2.93-.676l1.753-1.753a4.047,4.047,0,0,0,2.354,0L11.945,15.1A6.575,6.575,0,0,1,9.015,15.777ZM15.1,11.945l-1.753-1.753a4.047,4.047,0,0,0,0-2.354L15.1,6.085a6.686,6.686,0,0,1,0,5.86Z" fill="#fff"/></g></svg>