<svg xmlns="http://www.w3.org/2000/svg" xmlns:xlink="http://www.w3.org/1999/xlink" width="18" height="18" viewBox="0 0 18 18"><defs><clipPath id="a"><rect width="18" height="18" fill="none"/></clipPath></defs><g clip-path="url(#a)"><path d="M17.559,5.844,9.67.21a1.127,1.127,0,0,0-1.31,0L.472,5.844a1.127,1.127,0,0,0,1.31,1.835l.472-.337V16.9a1.127,1.127,0,0,0,1.127,1.127H14.65A1.127,1.127,0,0,0,15.777,16.9V7.342a1.921,1.921,0,0,0,1.126.547,1.127,1.127,0,0,0,.656-2.044Zm-4.036,9.933H11.269V12.4a2.254,2.254,0,1,0-4.508,0v3.381H4.508V5.732l4.508-3.22,4.508,3.22Z" transform="translate(0 0)" fill="#fff"/></g></svg>