<svg xmlns="http://www.w3.org/2000/svg" xmlns:xlink="http://www.w3.org/1999/xlink" width="18" height="18" viewBox="0 0 18 18"><defs><clipPath id="a"><rect width="18" height="18" fill="none"/></clipPath></defs><g clip-path="url(#a)"><path d="M14.988,5.86l1.24-2.367L14.65,1.916l-2.367,1.24a4.037,4.037,0,0,0-1.24-.451l-.9-2.7H7.888l-.9,2.592a4.71,4.71,0,0,0-1.127.451L3.493,1.8,1.8,3.493,3.043,5.86a4.71,4.71,0,0,0-.451,1.127L0,7.888v2.254l2.592.9c.113.451.338.789.451,1.24L1.8,14.65l1.578,1.578,2.367-1.24a4.037,4.037,0,0,0,1.24.451l.9,2.592h2.254l.9-2.592c.451-.113.789-.338,1.24-.451l2.367,1.24,1.578-1.578-1.24-2.367a4.037,4.037,0,0,0,.451-1.24l2.592-.9V7.888l-2.592-.9A4.71,4.71,0,0,0,14.988,5.86ZM9.015,12.4A3.32,3.32,0,0,1,5.635,9.015,3.32,3.32,0,0,1,9.015,5.635,3.32,3.32,0,0,1,12.4,9.015,3.32,3.32,0,0,1,9.015,12.4Z" fill="#fff"/></g></svg>