<svg xmlns="http://www.w3.org/2000/svg" width="32.825" height="37.23" viewBox="0 0 32.825 37.23">
  <g id="Group_19" data-name="Group 19" transform="translate(0.995 1.006)">
    <path id="Path_2985" data-name="Path 2985" d="M611.5,243.984v-1.709c0-3.964,3.189-7.858,7.154-8.228a7.929,7.929,0,0,1,8.7,7.893v2.431" transform="translate(-604.01 -234.008)" fill="none" stroke="#fff" stroke-linecap="round" stroke-linejoin="round" stroke-miterlimit="10" stroke-width="2"/>
    <path id="Path_2986" data-name="Path 2986" d="M617.382,264.667h10.572c7.083,0,8.352-2.837,8.722-6.29L638,247.805c.476-4.3-.758-7.805-8.281-7.805h-14.1c-7.524,0-8.757,3.506-8.281,7.805l1.321,10.572C609.03,261.83,610.3,264.667,617.382,264.667Z" transform="translate(-607.249 -229.443)" fill="none" stroke="#fff" stroke-linecap="round" stroke-linejoin="round" stroke-miterlimit="10" stroke-width="2"/>
    <path id="Path_2987" data-name="Path 2987" d="M619.495,244h.016" transform="translate(-597.919 -226.395)" fill="none" stroke="#fff" stroke-linecap="round" stroke-linejoin="round" stroke-width="2"/>
    <path id="Path_2988" data-name="Path 2988" d="M612.495,244h.014" transform="translate(-603.252 -226.395)" fill="none" stroke="#fff" stroke-linecap="round" stroke-linejoin="round" stroke-width="2"/>
  </g>
</svg>
