<svg xmlns="http://www.w3.org/2000/svg" width="37.239" height="37.238" viewBox="0 0 37.239 37.238">
  <g id="Group_8806" data-name="Group 8806" transform="translate(1 1)">
    <path id="Path_3402" data-name="Path 3402" d="M554.711,313.771a1.691,1.691,0,0,0-.423,0,5.779,5.779,0,1,1,.423,0Z" transform="translate(-536.88 -294.777)" fill="none" stroke="#fff" stroke-linecap="round" stroke-linejoin="round" stroke-width="2"/>
    <path id="Path_3403" data-name="Path 3403" d="M569.011,318.386a17.583,17.583,0,0,1-23.751,0,6.482,6.482,0,0,1,3.119-4.546c4.828-3.207,12.721-3.207,17.514,0A6.482,6.482,0,0,1,569.011,318.386Z" transform="translate(-539.516 -287.764)" fill="none" stroke="#fff" stroke-linecap="round" stroke-linejoin="round" stroke-width="2"/>
    <path id="Path_3404" data-name="Path 3404" d="M559.619,333.238A17.619,17.619,0,1,0,542,315.619,17.619,17.619,0,0,0,559.619,333.238Z" transform="translate(-542 -298)" fill="none" stroke="#fff" stroke-linecap="round" stroke-linejoin="round" stroke-width="2"/>
  </g>
</svg>
