<svg xmlns="http://www.w3.org/2000/svg" width="22" height="22" viewBox="0 0 22 22">
  <path id="Path_284" data-name="Path 284" d="M21,4H11L10,1H3A2.006,2.006,0,0,0,1,3V18a2.006,2.006,0,0,0,2,2h8l1,3h9a2.006,2.006,0,0,0,2-2V6A2.006,2.006,0,0,0,21,4ZM7,16A5,5,0,0,1,7,6a4.849,4.849,0,0,1,3.35,1.3L9.03,8.57A2.885,2.885,0,0,0,7,7.79a3.211,3.211,0,0,0,0,6.42A2.736,2.736,0,0,0,9.92,11.8H7V10.09h4.68a4.326,4.326,0,0,1,.12,1.02A4.612,4.612,0,0,1,7,16Zm6.17-5.42h3.7a10.018,10.018,0,0,1-2.05,3.47,11.241,11.241,0,0,1-.86-1.1l-.79-2.37ZM21.5,20.5a1,1,0,0,1-1,1H14L16,19l-1.04-3.1,3.1,3.1.92-.92-3.3-3.25.02-.02a11.164,11.164,0,0,0,2.4-4.22H20V9.29H15.47V8H14.18V9.29H12.74L11.46,5.5H20.5a1,1,0,0,1,1,1Z" transform="translate(-1 -1)" fill="#145887"/>
</svg>
